<svg width="24" height="24" viewBox="0 0 24 24" fill="none" xmlns="http://www.w3.org/2000/svg">
<path d="M20.0397 6.82L14.2797 2.79C12.7097 1.69 10.2997 1.75 8.78975 2.92L3.77975 6.83C2.77975 7.61 1.98975 9.21 1.98975 10.47V17.37C1.98975 19.92 4.05975 22 6.60975 22H17.3897C19.9397 22 22.0097 19.93 22.0097 17.38V10.6C22.0097 9.25 21.1397 7.59 20.0397 6.82ZM12.7497 18C12.7497 18.41 12.4097 18.75 11.9997 18.75C11.5897 18.75 11.2497 18.41 11.2497 18V15C11.2497 14.59 11.5897 14.25 11.9997 14.25C12.4097 14.25 12.7497 14.59 12.7497 15V18Z" fill="#6938EF"/>
</svg>
