<svg width="24" height="24" viewBox="0 0 24 24" fill="none" xmlns="http://www.w3.org/2000/svg">
<path d="M14.3498 2H9.64977C8.60977 2 7.75977 2.84 7.75977 3.88V4.82C7.75977 5.86 8.59977 6.7 9.63977 6.7H14.3498C15.3898 6.7 16.2298 5.86 16.2298 4.82V3.88C16.2398 2.84 15.3898 2 14.3498 2Z" fill="#7A5AF8"/>
<path d="M17.24 4.82C17.24 6.41 15.94 7.71 14.35 7.71H9.65004C8.06004 7.71 6.76004 6.41 6.76004 4.82C6.76004 4.26 6.16004 3.91 5.66004 4.17C4.25004 4.92 3.29004 6.40999 3.29004 8.11999V17.53C3.29004 19.99 5.30004 22 7.76004 22H16.24C18.7 22 20.71 19.99 20.71 17.53V8.11999C20.71 6.40999 19.75 4.92 18.34 4.17C17.84 3.91 17.24 4.26 17.24 4.82ZM12.38 16.95H8.00004C7.59004 16.95 7.25004 16.61 7.25004 16.2C7.25004 15.79 7.59004 15.45 8.00004 15.45H12.38C12.79 15.45 13.13 15.79 13.13 16.2C13.13 16.61 12.79 16.95 12.38 16.95ZM15 12.95H8.00004C7.59004 12.95 7.25004 12.61 7.25004 12.2C7.25004 11.79 7.59004 11.45 8.00004 11.45H15C15.41 11.45 15.75 11.79 15.75 12.2C15.75 12.61 15.41 12.95 15 12.95Z" fill="#7A5AF8"/>
</svg>
